<svg width="154" height="24" viewBox="0 0 154 24" fill="none" xmlns="http://www.w3.org/2000/svg">
<path d="M10.1835 0L0 19.5731H4.73061L14.9179 0H10.1835Z" fill="#F2617A"/>
<path d="M68.7922 7.83508L67.9763 9.3999H67.9276C67.5903 8.77514 67.0686 8.26433 66.4306 7.93403C65.7858 7.64382 65.0816 7.50216 64.3722 7.51992C63.6067 7.50419 62.8484 7.66751 62.1603 7.99633C61.532 8.30122 60.981 8.73938 60.5473 9.27897C60.1028 9.83355 59.7689 10.4651 59.563 11.1406C59.3366 11.8524 59.223 12.5939 59.2261 13.3394C59.221 14.1054 59.3154 14.8689 59.5068 15.6115C59.6815 16.2929 59.9932 16.9333 60.4238 17.4952C60.846 18.0371 61.3937 18.473 62.0218 18.7668C62.7489 19.0934 63.5426 19.2526 64.3422 19.2322C65.0583 19.2356 65.7662 19.0842 66.4156 18.7888C67.0621 18.506 67.5959 18.0232 67.9351 17.4146H67.98V18.9611C67.98 20.7934 67.1043 21.8415 65.3602 21.8415C63.6162 21.8415 62.688 21.1086 62.194 20.5076L61.0039 22.8126C61.0039 22.8126 62.3512 24 64.8999 24C69.1252 24 71.1088 21.9881 71.1088 18.8218V7.82775L68.7922 7.83508ZM67.8041 14.7723C67.6938 15.1446 67.5164 15.4946 67.2802 15.8058C67.0463 16.1111 66.7459 16.3615 66.4007 16.5387C66.02 16.7254 65.5987 16.8185 65.1731 16.8099C64.7252 16.8263 64.282 16.7156 63.8969 16.4911C63.5612 16.2851 63.2793 16.0053 63.0735 15.6738C62.8587 15.3294 62.7103 14.9493 62.6356 14.5524C62.5491 14.1376 62.5052 13.7152 62.5046 13.2918C62.5036 12.867 62.5551 12.4437 62.6581 12.0311C62.7506 11.649 62.9156 11.2872 63.1446 10.9647C63.3628 10.6619 63.6481 10.4113 63.9792 10.2318C64.3463 10.0412 64.7578 9.94774 65.1731 9.9606C65.6393 9.94277 66.1023 10.0438 66.5167 10.2538C66.8612 10.4431 67.153 10.7124 67.3662 11.038C67.5904 11.3898 67.7476 11.7784 67.8303 12.1851C67.9255 12.6359 67.9719 13.0953 67.9688 13.5556C67.9736 13.9668 67.9182 14.3766 67.8041 14.7723Z" fill="#003D4F"/>
<path d="M24.9031 3.3642V9.46956H24.9742C25.3451 8.83087 25.9013 8.31433 26.5722 7.98536C27.1596 7.68893 27.809 7.52963 28.4697 7.51995C29.2109 7.50054 29.9487 7.62509 30.6404 7.88641C31.1633 8.09278 31.6224 8.4287 31.9728 8.86122C32.311 9.3131 32.5436 9.83232 32.6539 10.3821C32.7912 11.0355 32.8577 11.7012 32.8523 12.3683V19.5877H29.5663V12.9437C29.6176 12.1937 29.4571 11.4444 29.1022 10.7778C28.7953 10.2978 28.2452 10.0449 27.4592 10.0449C26.561 10.0449 25.9136 10.3088 25.5094 10.8292C25.1052 11.3495 24.9068 12.2107 24.9068 13.3944V19.5731H21.6133V3.3642H24.9031Z" fill="#003D4F"/>
<path d="M34.2333 11.1626C34.5029 10.4317 34.9291 9.76569 35.4833 9.20933C36.0372 8.66599 36.6997 8.24054 37.4294 7.95967C39.0807 7.37217 40.8905 7.37217 42.5418 7.95967C43.2825 8.23312 43.9534 8.66131 44.508 9.21444C45.0626 9.76758 45.4874 10.4324 45.7529 11.1626C46.0571 11.9846 46.2067 12.8537 46.1945 13.7279C46.2058 14.5948 46.0561 15.4566 45.7529 16.2712C45.4785 16.9955 45.0528 17.6558 44.5029 18.2098C43.9452 18.7467 43.2765 19.1603 42.5418 19.4228C40.8865 19.9954 39.0809 19.9954 37.4257 19.4228C36.6945 19.1499 36.0311 18.7277 35.4795 18.1841C34.9272 17.632 34.5011 16.9712 34.2295 16.2455C33.9245 15.4314 33.7748 14.5693 33.7879 13.7022C33.7782 12.8363 33.9291 11.9758 34.2333 11.1626ZM37.2273 15.0875C37.3101 15.5142 37.4711 15.9227 37.7026 16.2932C37.9219 16.6453 38.2282 16.9377 38.5934 17.1434C39.02 17.3694 39.5008 17.4795 39.9856 17.4622C40.4727 17.478 40.9554 17.3681 41.3853 17.1434C41.7564 16.9403 42.0682 16.6476 42.291 16.2932C42.5211 15.922 42.6821 15.5138 42.7663 15.0875C42.86 14.6364 42.9064 14.1772 42.9048 13.7169C42.9058 13.2518 42.8594 12.7877 42.7663 12.3316C42.6839 11.9048 42.5228 11.4963 42.291 11.126C42.0637 10.77 41.7516 10.4732 41.3816 10.2611C40.953 10.0322 40.4698 9.9196 39.9819 9.93494C39.5284 9.91127 39.0768 10.0081 38.6749 10.2152C38.273 10.4223 37.9358 10.7319 37.6989 11.1113C37.4655 11.4809 37.3044 11.8897 37.2236 12.317C37.1292 12.7729 37.0816 13.237 37.0814 13.7022C37.08 14.1675 37.1276 14.6317 37.2236 15.0875H37.2273Z" fill="#003D4F"/>
<path d="M55.1767 19.5731V17.9569H55.1093C54.7321 18.5955 54.1657 19.1067 53.4851 19.4228C52.847 19.7174 52.1507 19.8713 51.4454 19.8736C50.7078 19.8966 49.9724 19.7821 49.2784 19.5364C48.7528 19.3385 48.2921 19.004 47.9461 18.5689C47.6044 18.1186 47.3704 17.5988 47.2612 17.0481C47.1239 16.3947 47.0574 15.7289 47.0628 15.0618V7.83508H50.3563V14.4645C50.305 15.2156 50.4656 15.9661 50.8203 16.634C51.1272 17.1104 51.6761 17.3547 52.4671 17.3669C53.3628 17.3669 54.0115 17.1055 54.4132 16.5827C54.8137 16.0623 55.0158 15.2011 55.0158 14.0174V7.83508H58.3055V19.5621L55.1767 19.5731Z" fill="#003D4F"/>
<path d="M75.6298 3.3642V9.46956H75.6972C76.0702 8.83116 76.6275 8.31483 77.299 7.98536C77.8864 7.68893 78.5358 7.52963 79.1965 7.51995C79.9377 7.50054 80.6754 7.62509 81.3672 7.88641C81.8925 8.08701 82.3555 8.41788 82.7108 8.84656C83.0488 9.29901 83.2824 9.8179 83.3957 10.3674C83.5316 11.021 83.5969 11.6867 83.5903 12.3537V19.5731H80.3006V12.9437C80.3501 12.1938 80.1897 11.4449 79.8365 10.7778C79.5271 10.2892 78.9782 10.0449 78.1897 10.0449C77.2915 10.0449 76.6441 10.3088 76.2436 10.8292C75.8432 11.3495 75.6411 12.2107 75.6411 13.3944V19.5731H72.3476V3.3642H75.6298Z" fill="#003D4F"/>
<path d="M108.707 11.1626C108.973 10.4354 109.397 9.77295 109.949 9.22028C110.5 8.66761 111.167 8.23767 111.903 7.95967C113.554 7.37217 115.364 7.37217 117.015 7.95967C117.755 8.23463 118.425 8.66334 118.98 9.21627C119.534 9.76921 119.959 10.4332 120.226 11.1626C120.531 11.9846 120.68 12.8537 120.668 13.7279C120.679 14.5948 120.53 15.4566 120.226 16.2712C119.952 16.9965 119.525 17.6571 118.973 18.2098C118.418 18.747 117.752 19.1608 117.019 19.4228C115.364 19.9954 113.558 19.9954 111.903 19.4228C111.171 19.1508 110.508 18.7285 109.957 18.1841C109.404 17.6315 108.977 16.9709 108.703 16.2455C108.401 15.4307 108.253 14.569 108.265 13.7022C108.256 12.8366 108.406 11.9765 108.707 11.1626ZM111.701 15.0875C111.785 15.5138 111.946 15.922 112.176 16.2932C112.398 16.6447 112.705 16.9368 113.071 17.1434C113.497 17.3694 113.978 17.4795 114.463 17.4622C114.95 17.478 115.433 17.3681 115.862 17.1434C116.233 16.9393 116.544 16.6468 116.768 16.2932C116.998 15.922 117.159 15.5138 117.243 15.0875C117.337 14.6364 117.384 14.1772 117.382 13.7169C117.383 13.2518 117.337 12.7877 117.243 12.3316C117.161 11.9048 117 11.4963 116.768 11.126C116.54 10.7708 116.228 10.4742 115.859 10.2611C115.43 10.0322 114.947 9.9196 114.459 9.93494C113.973 9.91802 113.492 10.0308 113.067 10.2611C112.705 10.4729 112.399 10.7639 112.172 11.1113C111.94 11.4816 111.779 11.8902 111.697 12.317C111.606 12.7733 111.559 13.2372 111.559 13.7022C111.558 14.1673 111.604 14.6313 111.697 15.0875H111.701Z" fill="#003D4F"/>
<path d="M134.257 3.3642V12.0605L138.404 7.83511H142.3L137.779 12.1484L142.813 19.5731H138.823L135.533 14.3289L134.257 15.5309V19.5621H130.964V3.3642H134.257Z" fill="#003D4F"/>
<path d="M145.245 16.656C145.386 16.8982 145.579 17.1071 145.811 17.268C146.053 17.4354 146.324 17.5595 146.611 17.6345C146.918 17.7114 147.234 17.7496 147.551 17.7481C147.796 17.7473 148.041 17.7203 148.281 17.6674C148.524 17.6195 148.759 17.5354 148.977 17.4183C149.183 17.3074 149.361 17.152 149.497 16.9638C149.647 16.7487 149.721 16.4911 149.707 16.2309C149.707 15.7472 149.377 15.3844 148.722 15.1315C147.826 14.8232 146.908 14.5783 145.975 14.3986C145.496 14.2923 145.028 14.1677 144.572 14.0321C144.136 13.9062 143.722 13.7199 143.34 13.4787C142.99 13.2502 142.697 12.947 142.483 12.5919C142.255 12.1942 142.143 11.743 142.158 11.2872C142.13 10.6376 142.287 9.9931 142.611 9.42558C142.902 8.94962 143.313 8.55471 143.805 8.27854C144.328 7.99135 144.897 7.79426 145.489 7.69585C146.114 7.58212 146.75 7.52569 147.386 7.52728C148.021 7.52514 148.654 7.5853 149.276 7.70685C149.854 7.81546 150.408 8.02393 150.912 8.32251C151.392 8.61072 151.801 9.00158 152.106 9.46589C152.445 10.0127 152.64 10.6335 152.674 11.2726H149.546C149.552 11.0187 149.489 10.7678 149.362 10.546C149.236 10.3243 149.051 10.1398 148.827 10.0119C148.351 9.7827 147.826 9.66954 147.296 9.68211C147.095 9.68284 146.894 9.69385 146.694 9.71509C146.49 9.73593 146.291 9.78658 146.102 9.86534C145.926 9.93684 145.77 10.0502 145.65 10.1952C145.519 10.3589 145.454 10.5633 145.466 10.7705C145.461 10.9041 145.488 11.037 145.543 11.159C145.599 11.281 145.683 11.3889 145.788 11.4741C146.038 11.6745 146.325 11.8251 146.634 11.9176C147.025 12.0426 147.424 12.1454 147.828 12.2254C148.277 12.3182 148.733 12.4172 149.198 12.5222C149.671 12.625 150.138 12.7534 150.597 12.907C151.031 13.0469 151.441 13.2495 151.814 13.508C152.167 13.7526 152.461 14.0704 152.674 14.4389C152.904 14.861 153.017 15.335 153 15.8131C153.031 16.448 152.888 17.0794 152.586 17.642C152.284 18.2045 151.834 18.6777 151.282 19.0124C150.747 19.3409 150.155 19.5683 149.534 19.683C148.874 19.8108 148.202 19.8746 147.528 19.8736C146.843 19.8753 146.16 19.8078 145.489 19.672C144.86 19.5488 144.259 19.3154 143.715 18.9831C143.152 18.6459 142.689 18.1714 142.37 17.6061C142.051 17.0407 141.888 16.4039 141.896 15.7582H145.025C145.014 16.0714 145.091 16.3816 145.245 16.656Z" fill="#003D4F"/>
<path d="M90.544 17.1654C90.1485 17.2126 89.749 17.1161 89.4213 16.8942C89.1946 16.5733 89.0961 16.1821 89.1443 15.7948V9.99361H90.9819L92.1047 7.83511H89.148V4.31702H85.8546V7.83511H84.2079L83.0851 9.98994H85.8508V16.9162C85.8293 17.4098 85.9335 17.901 86.154 18.3454C86.3418 18.6968 86.6272 18.989 86.9774 19.1883C87.3507 19.3918 87.7593 19.526 88.1825 19.5841C88.6618 19.6547 89.1461 19.689 89.6308 19.6867C89.9564 19.6867 90.2858 19.6867 90.6264 19.6647C90.9373 19.6519 91.2472 19.6213 91.5545 19.5731V17.0738C91.394 17.107 91.2315 17.1302 91.068 17.1434C90.9071 17.1581 90.7312 17.1654 90.544 17.1654Z" fill="#003D4F"/>
<path d="M19.5624 17.1654C19.1669 17.2122 18.7676 17.1158 18.4397 16.8942C18.2131 16.5733 18.1145 16.1821 18.1627 15.7948V9.99361H19.8581L20.9809 7.83511H18.1702V4.31702H14.8805V7.83511H13.23L12.1072 9.98994H14.8767V16.9162C14.8542 17.4095 14.9571 17.9006 15.1761 18.3454C15.3651 18.6959 15.6503 18.9879 15.9995 19.1883C16.3766 19.3925 16.789 19.5267 17.2158 19.5841C17.6952 19.6547 18.1795 19.689 18.6642 19.6867C18.9898 19.6867 19.3229 19.6867 19.6597 19.6647C19.9694 19.6517 20.2781 19.6211 20.5842 19.5731V17.0738C20.4236 17.107 20.2611 17.1302 20.0976 17.1434C19.9255 17.1581 19.7458 17.1654 19.5624 17.1654Z" fill="#003D4F"/>
<path d="M128.396 7.51994C125.631 7.51994 124.571 10.0156 124.571 10.0156H124.526V7.8351H121.398V19.5621H124.687V14.6587C124.687 11.8003 125.256 10.525 127.745 10.525C128.193 10.5186 128.636 10.6219 129.033 10.8255L130.444 8.11362C129.836 7.72292 129.123 7.51642 128.396 7.51994Z" fill="#003D4F"/>
<path d="M105.503 7.83875L103.299 15.7801H103.254L101.214 7.83875H98.0142L96.0194 15.8058H95.9745L93.7738 7.83875L91.6293 11.9542L94.0994 19.5731H97.5052L99.5449 11.694H99.5898L101.723 19.5731H105.11L108.886 7.83875H105.503Z" fill="#003D4F"/>
</svg>
